
<svg id="visual" viewBox="0 0 2000 1000" width="2000" height="1000" xmlns="http://www.w3.org/2000/svg" xmlns:xlink="http://www.w3.org/1999/xlink" version="1.1"><path d="M0 371L154 371L154 111L308 111L308 281L462 281L462 471L615 471L615 171L769 171L769 151L923 151L923 171L1077 171L1077 101L1231 101L1231 111L1385 111L1385 281L1538 281L1538 391L1692 391L1692 311L1846 311L1846 231L2000 231L2000 411L2000 0L2000 0L1846 0L1846 0L1692 0L1692 0L1538 0L1538 0L1385 0L1385 0L1231 0L1231 0L1077 0L1077 0L923 0L923 0L769 0L769 0L615 0L615 0L462 0L462 0L308 0L308 0L154 0L154 0L0 0Z" fill="#0f0f1a"></path><path d="M0 561L154 561L154 171L308 171L308 331L462 331L462 581L615 581L615 241L769 241L769 191L923 191L923 241L1077 241L1077 221L1231 221L1231 171L1385 171L1385 421L1538 421L1538 441L1692 441L1692 401L1846 401L1846 401L2000 401L2000 471L2000 409L2000 229L1846 229L1846 309L1692 309L1692 389L1538 389L1538 279L1385 279L1385 109L1231 109L1231 99L1077 99L1077 169L923 169L923 149L769 149L769 169L615 169L615 469L462 469L462 279L308 279L308 109L154 109L154 369L0 369Z" fill="#171825"></path><path d="M0 621L154 621L154 261L308 261L308 371L462 371L462 741L615 741L615 451L769 451L769 261L923 261L923 361L1077 361L1077 281L1231 281L1231 251L1385 251L1385 491L1538 491L1538 601L1692 601L1692 441L1846 441L1846 581L2000 581L2000 691L2000 469L2000 399L1846 399L1846 399L1692 399L1692 439L1538 439L1538 419L1385 419L1385 169L1231 169L1231 219L1077 219L1077 239L923 239L923 189L769 189L769 239L615 239L615 579L462 579L462 329L308 329L308 169L154 169L154 559L0 559Z" fill="#1f1f31"></path><path d="M0 881L154 881L154 711L308 711L308 721L462 721L462 891L615 891L615 771L769 771L769 661L923 661L923 731L1077 731L1077 721L1231 721L1231 771L1385 771L1385 751L1538 751L1538 841L1692 841L1692 591L1846 591L1846 791L2000 791L2000 791L2000 689L2000 579L1846 579L1846 439L1692 439L1692 599L1538 599L1538 489L1385 489L1385 249L1231 249L1231 279L1077 279L1077 359L923 359L923 259L769 259L769 449L615 449L615 739L462 739L462 369L308 369L308 259L154 259L154 619L0 619Z" fill="#1f1f31"></path><path d="M0 971L154 971L154 901L308 901L308 851L462 851L462 971L615 971L615 961L769 961L769 861L923 861L923 931L1077 931L1077 921L1231 921L1231 921L1385 921L1385 901L1538 901L1538 891L1692 891L1692 841L1846 841L1846 931L2000 931L2000 881L2000 789L2000 789L1846 789L1846 589L1692 589L1692 839L1538 839L1538 749L1385 749L1385 769L1231 769L1231 719L1077 719L1077 729L923 729L923 659L769 659L769 769L615 769L615 889L462 889L462 719L308 719L308 709L154 709L154 879L0 879Z" fill="#171825"></path><path d="M0 1001L154 1001L154 1001L308 1001L308 1001L462 1001L462 1001L615 1001L615 1001L769 1001L769 1001L923 1001L923 1001L1077 1001L1077 1001L1231 1001L1231 1001L1385 1001L1385 1001L1538 1001L1538 1001L1692 1001L1692 1001L1846 1001L1846 1001L2000 1001L2000 1001L2000 879L2000 929L1846 929L1846 839L1692 839L1692 889L1538 889L1538 899L1385 899L1385 919L1231 919L1231 919L1077 919L1077 929L923 929L923 859L769 859L769 959L615 959L615 969L462 969L462 849L308 849L308 899L154 899L154 969L0 969Z" fill="#0f0f1a"></path></svg>