<svg xmlns="http://www.w3.org/2000/svg" width="168" height="41" viewBox="0 0 168 41">
  <g id="Icons_logo_mousebelt" data-name="Icons/logo_mousebelt" transform="translate(0)">
    <rect id="logo_mousebelt_background" data-name="logo_mousebelt background" width="168" height="41" fill="none"/>
    <g id="logo_mousebelt">
      <path id="Combined_Shape" data-name="Combined Shape" d="M5.766,33.668a19.747,19.747,0,0,1,0-27.892A19.689,19.689,0,0,1,39.378,19.723,19.682,19.682,0,0,1,5.766,33.668Zm22.3-7.168a2.622,2.622,0,0,0,.261,1.181h.244c3.175,0,5.148-1.728,5.148-4.51a3.459,3.459,0,0,0-3.009-3.5v-.087A3.1,3.1,0,0,0,33.1,16.443c0-2.6-1.718-3.982-4.968-3.982H19.835L15.241,23.634h-.066L10.582,12.461H6.6v15.22H9.567L9.344,16.688h.087l4.615,10.993h2.232L20.894,16.53h.092l-.038,11.135a11.66,11.66,0,0,1,2.216-2.6,1.806,1.806,0,0,0,.559-.642V22.367c-.945-.4-.875-1.657-.874-1.67a1.972,1.972,0,0,1,.874-1.676V19a1.9,1.9,0,0,1,.342-.167,3.217,3.217,0,0,1,1.057-.2,1.376,1.376,0,0,1,.915.267,2.478,2.478,0,0,1,.711,2.056.976.976,0,0,1,.345-.063,1.068,1.068,0,0,1,.557.161c-.042-.3-.527-.328-.675-.328h-.042a2.794,2.794,0,0,0-.6-2.073,2.772,2.772,0,0,1,1.007-.179,2.415,2.415,0,0,1,.3.016,1.652,1.652,0,0,1,1.173,1.337c.156.613-.617,1.45-.625,1.458.108.081.834.454.841.457a5.335,5.335,0,0,0,1.417.413c.021-.291.344-.3.381-.3l.049,0c.315,0,.367.374.368.378a.439.439,0,0,1-.4.49,4.985,4.985,0,0,1-2.092,2.388,3.221,3.221,0,0,1-1.657.336c-.349,0-.61-.025-.613-.025a2.485,2.485,0,0,0,1.13.232c.1,0,.157,0,.163,0a.122.122,0,0,1,.025,0C28.024,25.648,28.062,26.492,28.062,26.5Zm64.76-3.025H93.89c0,2.2,1.742,3.4,4.4,3.4,2.745,0,4.313-1.288,4.313-3.361C102.6,18.564,93,22.21,93,16.4c0-2.335,2.069-4.058,5.207-4.058,3.028,0,5.163,1.4,5.163,4.015H102.3c0-2.052-1.742-3.1-4.095-3.1-2.375,0-4.1,1.2-4.1,3.054,0,4.8,9.628,1.113,9.628,7.159,0,2.574-1.983,4.321-5.446,4.321C94.913,27.8,92.822,26.268,92.822,23.476ZM79.8,21.686V12.564h1.09v9.122c0,3.382,1.7,5.128,4.574,5.128s4.575-1.746,4.575-5.128V12.564h1.09v9.122c0,4.277-2.309,6.111-5.665,6.111C82.127,27.8,79.8,25.962,79.8,21.686Zm-14.638,3.9A8.187,8.187,0,0,1,63.2,20.071a8.188,8.188,0,0,1,1.961-5.523,6.965,6.965,0,0,1,10.163,0,8.147,8.147,0,0,1,1.993,5.523,8.148,8.148,0,0,1-1.993,5.516,6.948,6.948,0,0,1-10.163,0Zm-.828-5.516c0,3.894,2.492,6.721,5.926,6.721s5.925-2.827,5.925-6.721-2.491-6.72-5.925-6.72S64.33,16.177,64.33,20.071Zm95.581,7.507V15.008h-5.075V12.564h13.07v2.444h-5.075V27.578Zm-13.788,0V12.564h2.919V25.111h7.167v2.467Zm-13.941,0V12.564h10.87v2.423H135.1v3.775h6.4v2.313h-6.4v4.081h8.148v2.423Zm-14.464,0V12.564H124.8c3.207,0,4.9,1.358,4.9,3.929a3.05,3.05,0,0,1-2.353,3.1v.087a3.616,3.616,0,0,1,2.176,1.192,3.439,3.439,0,0,1,.787,2.256c0,2.746-1.945,4.451-5.076,4.451Zm2.94-2.314h4.161c1.63,0,2.527-.8,2.527-2.247,0-1.332-.913-2.1-2.5-2.1h-4.183Zm0-6.524h3.748c1.487,0,2.374-.767,2.374-2.051,0-1.185-.814-1.812-2.353-1.812h-3.769Zm-14.79,8.838V12.564h9.76V13.5h-8.671v5.935h7.015v.939h-7.015v6.263H115.8v.939Zm-45.589,0,.087-13.246h-.044L54.355,27.578h-.85L47.559,14.462h-.044L47.6,27.578H46.512V12.564H47.82l6.121,13.551h.044l6.078-13.551h1.307V27.578Z" transform="translate(0 0.286)" fill="#fff"/>
    </g>
  </g>
</svg>
